<svg xmlns="http://www.w3.org/2000/svg" width="200" height="200" viewBox="0 0 200 200"><g fill="none" fill-rule="evenodd" transform="translate(6)"><polygon fill="#CA0813" points="94.1 0 94.1 0 94.1 0 1 33.2 15.2 156.3 94.1 200 94.1 200 94.1 200 173 156.3 187.2 33.2"/><polygon fill="#A00810" points="94 0 94 200 172.9 156.3 187.1 33.2"/><path stroke="#FFF" stroke-width="8" d="M94,4.24672617 L182.762046,35.8997865 L169.162121,153.797726 L94,195.427443 L18.8378791,153.797726 L5.23795433,35.8997865 L94,4.24672617 Z"/><path stroke="#CA0813" stroke-width="4" d="M94,2.1236208 L184.831274,34.549409 L170.946112,155.04951 L94,197.713144 L17.0538884,155.04951 L3.16872573,34.549409 L94,2.1236208 Z"/><path fill="#FFF" d="M147.135,120.885 L153,139 L135,139 L133.119,132.646 L147.135,120.885 Z M93.486,104.917 L101.933,123.889 L94.9870751,139 L92.8750751,139 L85.383,123.118 L93.486,104.917 Z M40.371,119.445 L55.313,128.073 L52,139 L34,139 L40.371,119.445 Z M144.259,112 L146.138,117.805 L132.191,129.508 L127.011,112 L144.259,112 Z M61.704,107 L56.207,125.124 L41.321,116.529 L44.425,107 L61.704,107 Z M96.634,104.61 L108.766,109.025 L103.602,120.26 L96.634,104.61 Z M90.61,104 L83.693,119.536 L76.364,104 L90.61,104 Z M136.903,89.275 L143.288,109 L126.123,109 L123.592,100.445 L136.903,89.275 Z M101.014,88.03 L114.767,95.971 L110.023,106.29 L95.4037475,100.970855 C95.6559931,100.360766 95.9120772,99.7438147 96.172,99.12 L101.014,88.03 Z M50.37,88.754 L64.724,97.042 L62.614,104 L45.403,104 L50.37,88.754 Z M86.026,87.674 L91.024,99.12 C91.2821049,99.7394518 91.5402098,100.352136 91.7983148,100.958053 L91.7355806,100.983926 L91.743,101 L74.949,101 L72.38,95.553 L86.026,87.674 Z M132.734,76.396 L135.906,86.195 L122.663,97.307 L121.912,94.764 C121.757397,94.2645122 121.607615,93.7757147 121.462655,93.2976074 L121.479917,93.2939105 L119.607835,86.7659825 C119.488312,86.3045195 119.376367,85.8598586 119.272,85.432 L119.244,85.5 L117.409,79.098 L132.734,76.396 Z M71.197,74.612 L68.0767027,85.4929361 C68.0697209,85.4724768 68.06282,85.4521648 68.056,85.432 L65.607,94.087 L51.32,85.838 L53.988,77.646 L71.197,74.612 Z M110.572,66.136 L117.405242,89.9651163 C116.989274,90.941664 116.521739,92.0265133 116.002637,93.219664 L102.221,85.263 L110.572,66.136 Z M76.699,66.31 L84.818,84.907 L71.1188073,92.8168008 C70.6664103,91.8127251 70.2579448,90.8886139 69.893411,90.044467 L76.699,66.31 Z M112.805,63.044 L129.356,65.961 L131.801,73.515 L116.577,76.199 L112.805,63.044 Z M59.365,61.142 L74.304,63.776 L72.117,71.404 L55.041,74.415 L59.365,61.142 Z M122.572,45 L128.311,62.731 L113.22,60.07 L119.8,45 L122.572,45 Z M67.396,45 L74.259,60.722 L71.874,60.301 L60.304,58.261 L64.624,45 L67.396,45 Z"/></g></svg>